
#
# '/mnt/sdcard/Download/cds-data/video/video_04_mpeg_ts (3min).ts'
#
General
Count                                    : 284
Count of stream of this kind             : 1
Kind of stream                           : General
Kind of stream                           : General
Stream identifier                        : 0
ID                                       : 0
ID                                       : 0 (0x0)
Count of video streams                   : 1
Count of audio streams                   : 1
Video_Format_List                        : MPEG Video
Video_Format_WithHint_List               : MPEG Video
Codecs Video                             : MPEG-2 Video
Audio_Format_List                        : MPEG Audio
Audio_Format_WithHint_List               : MPEG Audio
Audio codecs                             : MPEG-1 Audio layer 2
Audio_Language_List                      : English
Complete name                            : /mnt/sdcard/Download/cds-data/video/video_04_mpeg_ts (3min).ts
Folder name                              : /mnt/sdcard/Download/cds-data/video
File name                                : video_04_mpeg_ts (3min)
File extension                           : ts
Format                                   : MPEG-TS
Format                                   : MPEG-TS
Format/Extensions usually used           : ts m2t m2s m4t m4s ts tp trp
Commercial name                          : MPEG-TS
Internet media type                      : video/MP2T
Codec                                    : MPEG-TS
Codec                                    : MPEG-TS
Codec/Extensions usually used            : ts m2t m2s m4t m4s ts tp trp
File size                                : 40306448
File size                                : 38.4 MiB
File size                                : 38 MiB
File size                                : 38 MiB
File size                                : 38.4 MiB
File size                                : 38.44 MiB
Duration                                 : 180080.000000
Duration                                 : 3mn 0s
Duration                                 : 3mn 0s 80ms
Duration                                 : 3mn 0s
Duration                                 : 00:03:00.080
Overall bit rate mode                    : VBR
Overall bit rate mode                    : Variable
Overall bit rate                         : 1790360
Overall bit rate                         : 1 790 Kbps
Delay                                    : 0.000000
Delay                                    : 00:00:00.000
Stream size                              : 2019744
Stream size                              : 1.93 MiB (5%)
Stream size                              : 2 MiB
Stream size                              : 1.9 MiB
Stream size                              : 1.93 MiB
Stream size                              : 1.926 MiB
Stream size                              : 1.93 MiB (5%)
Proportion of this stream                : 0.05011
File last modification date              : UTC 2014-11-26 06:30:23
File last modification date (local)      : 2014-11-26 15:30:23

Video
Count                                    : 273
Count of stream of this kind             : 1
Kind of stream                           : Video
Kind of stream                           : Video
Stream identifier                        : 0
StreamOrder                              : 0-0
ID                                       : 68
ID                                       : 68 (0x44)
Menu ID                                  : 1
Menu ID                                  : 1 (0x1)
Format                                   : MPEG Video
Commercial name                          : MPEG-2 Video
Format version                           : Version 2
Format profile                           : Main@High 1440
Format settings, BVOP                    : No
Format settings, BVOP                    : No
Format settings, Matrix                  : Default
Format settings, Matrix                  : Default
Format settings, GOP                     : Variable
Internet media type                      : video/MPV
Codec ID                                 : 2
Codec                                    : MPEG-2V
Codec                                    : MPEG-2 Video
Codec/Family                             : MPEG-V
Codec profile                            : Main@High 1440
Codec settings, Matrix                   : Default
Duration                                 : 180120
Duration                                 : 3mn 0s
Duration                                 : 3mn 0s 120ms
Duration                                 : 3mn 0s
Duration                                 : 00:03:00.120
Bit rate mode                            : VBR
Bit rate mode                            : Variable
Bit rate                                 : 1572583
Bit rate                                 : 1 573 Kbps
Maximum bit rate                         : 2400000
Maximum bit rate                         : 2 400 Kbps
Width                                    : 1376
Width                                    : 1 376 pixels
Height                                   : 768
Height                                   : 768 pixels
Pixel aspect ratio                       : 0.744
Display aspect ratio                     : 1.333
Display aspect ratio                     : 4:3
Frame rate                               : 25.000
Frame rate                               : 25.000 fps
Frame count                              : 4503
Resolution                               : 8
Resolution                               : 8 bits
Colorimetry                              : 4:2:0
Color space                              : YUV
Chroma subsampling                       : 4:2:0
Bit depth                                : 8
Bit depth                                : 8 bits
Scan type                                : Progressive
Scan type                                : Progressive
Interlacement                            : PPF
Interlacement                            : Progressive
Compression mode                         : Lossy
Compression mode                         : Lossy
Bits/(Pixel*Frame)                       : 0.060
Delay                                    : 0.000
Delay                                    : 00:00:00.000
Delay_DropFrame                          : No
Delay, origin                            : Container
Delay, origin                            : Container
Delay_Original                           : 0
Delay_Original                           : 00:00:00.000
Delay_Original_Settings                  : drop_frame_flag=0 / closed_gop=0 / broken_link=0
Delay_Original_DropFrame                 : No
Delay_Original_Source                    : Stream
Time code of first frame                 : 00:00:00:00
Time code source                         : Group of pictures header
Stream size                              : 35406704
Stream size                              : 33.8 MiB (88%)
Stream size                              : 34 MiB
Stream size                              : 34 MiB
Stream size                              : 33.8 MiB
Stream size                              : 33.77 MiB
Stream size                              : 33.8 MiB (88%)
Proportion of this stream                : 0.87844
Buffer size                              : 114688
intra_dc_precision                       : 8

Audio
Count                                    : 222
Count of stream of this kind             : 1
Kind of stream                           : Audio
Kind of stream                           : Audio
Stream identifier                        : 0
StreamOrder                              : 0-1
ID                                       : 69
ID                                       : 69 (0x45)
Menu ID                                  : 1
Menu ID                                  : 1 (0x1)
Format                                   : MPEG Audio
Commercial name                          : MPEG Audio
Format version                           : Version 1
Format profile                           : Layer 2
Internet media type                      : audio/mpeg
Codec ID                                 : 3
Codec                                    : MPA1L2
Codec                                    : MPEG-1 Audio layer 2
Duration                                 : 180000
Duration                                 : 3mn 0s
Duration                                 : 3mn 0s 0ms
Duration                                 : 3mn 0s
Duration                                 : 00:03:00.000
Bit rate mode                            : CBR
Bit rate mode                            : Constant
Bit rate                                 : 128000
Bit rate                                 : 128 Kbps
Channel(s)                               : 2
Channel(s)                               : 2 channels
Sampling rate                            : 48000
Sampling rate                            : 48.0 KHz
Samples count                            : 8640000
Frame count                              : 7500
Compression mode                         : Lossy
Compression mode                         : Lossy
Delay                                    : 0.000
Delay                                    : 00:00:00.000
Delay, origin                            : Container
Delay, origin                            : Container
Delay relative to video                  : 0
Video0 delay                             : 0
Stream size                              : 2880000
Stream size                              : 2.75 MiB (7%)
Stream size                              : 3 MiB
Stream size                              : 2.7 MiB
Stream size                              : 2.75 MiB
Stream size                              : 2.747 MiB
Stream size                              : 2.75 MiB (7%)
Proportion of this stream                : 0.07145
Language                                 : en
Language                                 : English
Language                                 : English
Language                                 : en
Language                                 : eng
Language                                 : en
Language, more info                      : Hearing impaired

